HIERARCHY
ROOT hip
{
	OFFSET 0.000000 0.000000 0.000000 
	CHANNELS 6 Xposition Yposition Zposition Xrotation Zrotation Yrotation
	JOINT abdomen
	{
		OFFSET 0.000000 3.402643 0.000000 
		CHANNELS 3 Xrotation Zrotation Yrotation
		JOINT chest
		{
			OFFSET 0.000000 8.438565 -0.680529 
			CHANNELS 3 Xrotation Zrotation Yrotation
			JOINT neck
			{
				OFFSET 0.000000 10.207942 -0.272212 
				CHANNELS 3 Xrotation Zrotation Yrotation
				JOINT head
				{
					OFFSET 0.000000 3.130431 0.000000 
					CHANNELS 3 Xrotation Zrotation Yrotation
					End Site
					{
						OFFSET 0.000000 3.130435 0.000000 
					}
				}
			}
			JOINT lCollar
			{
				OFFSET 3.470700 6.669187 -0.816635 
				CHANNELS 3 Yrotation Zrotation Xrotation
				JOINT lShldr
				{
					OFFSET 3.198488 0.000000 0.000000 
					CHANNELS 3 Zrotation Yrotation Xrotation
					JOINT lForeArm
					{
						OFFSET 10.139888 0.000000 0.000000 
						CHANNELS 3 Yrotation Zrotation Xrotation
						JOINT lHand
						{
							OFFSET 8.370511 0.000000 0.000000 
							CHANNELS 3 Zrotation Yrotation Xrotation
							End Site
							{
								OFFSET 4.083176 0.000000 0.000000 
							}
						}
					}
				}
			}
			JOINT rCollar
			{
				OFFSET -3.470700 6.669187 -0.816635 
				CHANNELS 3 Yrotation Zrotation Xrotation
				JOINT rShldr
				{
					OFFSET -3.198488 0.000000 0.000000 
					CHANNELS 3 Zrotation Yrotation Xrotation
					JOINT rForeArm
					{
						OFFSET -10.139888 0.000000 0.000000 
						CHANNELS 3 Yrotation Zrotation Xrotation
						JOINT rHand
						{
							OFFSET -8.370511 0.000000 0.000000 
							CHANNELS 3 Zrotation Yrotation Xrotation
							End Site
							{
								OFFSET -4.083176 0.000000 0.000000 
							}
						}
					}
				}
			}
		}
	}
	JOINT lThigh
	{
		OFFSET 5.308129 -1.633274 1.361059 
		CHANNELS 3 Xrotation Zrotation Yrotation
		JOINT lShin
		{
			OFFSET -2.041588 -20.007561 0.000000 
			CHANNELS 3 Xrotation Zrotation Yrotation
			JOINT lFoot
			{
				OFFSET 0.000000 -19.190928 -1.224953 
				CHANNELS 3 Xrotation Yrotation Zrotation
				End Site
				{
					OFFSET 0.000000 -2.449906 4.627600 
				}
			}
		}
	}
	JOINT rThigh
	{
		OFFSET -5.308129 -1.633274 1.361059 
		CHANNELS 3 Xrotation Zrotation Yrotation
		JOINT rShin
		{
			OFFSET 2.041588 -20.007561 0.000000 
			CHANNELS 3 Xrotation Zrotation Yrotation
			JOINT rFoot
			{
				OFFSET 0.000000 -19.190928 -1.224953 
				CHANNELS 3 Xrotation Yrotation Zrotation
				End Site
				{
					OFFSET 0.000000 -2.449906 4.627600 
				}
			}
		}
	}
}
MOTION
Frames: 20
Frame Time: 0.016667
0.419100 53.427826 -3.207507 -6.254994 4.122713 9.488026 29.052719 2.629433 0.986159 -0.139624 3.651446 -2.062945 -7.662672 5.207548 -0.571309 7.473589 4.746028 -66.013382 -2.994275 -4.040108 -0.206326 -70.806572 11.887202 -19.097080 -18.521719 -5.000000 45.000000 -21.663223 16.634220 21.432423 11.578880 12.875693 -0.675046 49.368229 -14.979590 -16.799416 22.273132 5.000000 45.000000 13.066662 -25.068100 32.339317 8.017241 3.173115 -12.788551 4.440650 -4.548398 -0.516472 -8.890213 9.089046 -1.299764 14.143727 -8.561284 -3.648264 0.195251 3.551374 0.105452 -4.886918 -12.247753 6.227259 
0.414996 53.429893 -3.203306 -6.297074 4.113314 9.468545 29.073603 2.638330 1.011525 -0.158122 3.661237 -2.033687 -7.622919 5.228322 -0.564613 7.531337 4.737679 -65.991829 -2.994311 -4.049861 -0.206829 -70.833549 11.883614 -19.090738 -18.562790 -5.000000 45.000000 -21.596910 16.632700 21.452032 11.637710 12.895197 -0.676054 49.351486 -15.061088 -16.832941 22.286854 5.000000 45.000000 13.122928 -25.201103 32.247208 8.039390 3.209013 -12.764938 4.460432 -4.569912 -0.528187 -8.943110 9.126513 -1.310858 14.187308 -8.544659 -3.594945 0.185510 3.531878 0.075813 -4.898029 -12.238755 6.358362 
0.412184 53.429482 -3.196631 -6.327073 4.113431 9.458805 29.073380 2.628763 1.007049 -0.157922 3.680777 -2.033707 -7.603292 5.218667 -0.563153 7.576083 4.763306 -65.987106 -2.984545 -4.049861 -0.206829 -70.867867 11.861192 -19.069311 -18.613813 -5.000000 45.000000 -21.597000 16.656164 21.452085 11.678962 12.893219 -0.685377 49.346081 -15.111204 -16.883101 22.303583 5.000000 45.000000 13.136751 -25.286915 32.218410 8.070731 3.210233 -12.746797 4.507915 -4.578059 -0.532162 -8.962196 9.099195 -1.300686 14.216393 -8.534004 -3.573176 0.175780 3.503050 0.075619 -4.946587 -12.269481 6.351528 
0.410212 53.427406 -3.188305 -6.352251 4.142447 9.449069 29.062527 2.605392 0.986160 -0.148369 3.690540 -2.033706 -7.603197 5.209012 -0.561693 7.615144 4.810986 -65.996071 -2.974779 -4.049861 -0.206829 -70.912910 11.829599 -19.064240 -18.671631 -5.000000 45.000000 -21.631701 16.702057 21.436586 11.698495 12.893217 -0.685376 49.341930 -15.153934 -16.936953 22.327957 5.000000 45.000000 13.124608 -25.346567 32.231758 8.084270 3.172777 -12.703135 4.565638 -4.575990 -0.526932 -8.982961 9.091381 -1.259874 14.255934 -8.544804 -3.575395 0.166073 3.484299 0.095382 -4.979482 -12.306124 6.301451 
0.409908 53.425323 -3.180000 -6.376013 4.171228 9.459520 29.052301 2.587420 0.978127 -0.138815 3.700303 -2.033706 -7.583571 5.199356 -0.560233 7.634653 4.860793 -66.015503 -2.975395 -4.029849 -0.215551 -70.956512 11.813271 -19.041563 -18.719240 -5.000000 45.000000 -21.644005 16.725483 21.425110 11.708260 12.893215 -0.685376 49.345512 -15.187479 -16.986176 22.336985 5.000000 45.000000 13.131302 -25.401726 32.228107 8.098530 3.160413 -12.695151 4.617138 -4.607630 -0.521676 -9.000374 9.041476 -1.227991 14.288545 -8.549849 -3.617203 0.176373 3.454924 0.125825 -5.040733 -12.339342 6.215993 
0.416232 53.423252 -3.171774 -6.368317 4.199649 9.498478 28.993057 2.605610 0.963696 -0.147520 3.651487 -2.014176 -7.534839 5.209012 -0.561693 7.600362 4.899458 -66.092369 -3.024001 -3.971326 -0.212534 -71.001259 11.800176 -19.030033 -18.712240 -5.000000 45.000000 -21.526848 16.658581 21.393555 11.679324 12.922477 -0.686889 49.332550 -15.247169 -17.000648 22.332323 5.000000 45.000000 13.190019 -25.435980 32.181606 8.100515 3.142190 -12.737144 4.623310 -4.615490 -0.512869 -8.971426 9.069493 -1.206171 14.318548 -8.579782 -3.702608 0.186062 3.463712 0.097058 -5.223166 -12.226992 6.132614 
0.422545 53.421177 -3.163549 -6.370347 4.228062 9.538151 28.952858 2.617921 0.936728 -0.156436 3.612434 -1.984880 -7.486105 5.218666 -0.563153 7.566752 4.941769 -66.170952 -3.072611 -3.912802 -0.209517 -71.054161 11.789971 -19.006136 -18.705208 -5.000000 45.000000 -21.422461 16.587280 21.363323 11.640623 12.951739 -0.688402 49.319569 -15.306870 -17.015106 22.320002 5.000000 45.000000 13.253330 -25.467937 32.122299 8.108632 3.111566 -12.741268 4.630596 -4.621065 -0.562527 -8.969980 9.036119 -1.200385 14.348870 -8.590728 -3.794250 0.195153 3.462890 0.077617 -5.403119 -12.121792 6.075953 
0.433918 53.419106 -3.150403 -6.410312 4.218310 9.547888 28.945389 2.664526 0.979563 -0.137117 3.622197 -2.023942 -7.515116 5.189701 -0.558773 7.618174 4.939027 -66.099899 -3.053116 -3.922558 -0.210020 -71.071098 11.758785 -18.998165 -18.705208 -5.000000 45.000000 -21.523363 16.497913 21.404417 11.630736 12.941988 -0.687898 49.297363 -15.348273 -17.032310 22.298359 5.000000 45.000000 13.230261 -25.440454 32.109138 8.163695 3.134350 -12.731823 4.625375 -4.625738 -0.591110 -8.970771 9.024537 -1.216721 14.423100 -8.584176 -3.832340 0.176394 3.473372 0.057183 -5.361247 -12.140222 6.019743 
0.446541 53.417030 -3.136031 -6.460764 4.208679 9.547887 28.957407 2.701126 1.018257 -0.117389 3.641737 -2.063024 -7.563569 5.151080 -0.552933 7.687520 4.924023 -66.007217 -3.014163 -3.951822 -0.211529 -71.078743 11.721553 -18.991377 -18.703585 -5.000000 45.000000 -21.667526 16.401175 21.475367 11.640261 12.922483 -0.686890 49.265934 -15.371397 -17.049673 22.259743 5.000000 45.000000 13.194061 -25.395140 32.100132 8.227042 3.132020 -12.705391 4.627351 -4.609675 -0.600502 -9.031273 9.036691 -1.184987 14.495661 -8.581098 -3.892583 0.185456 3.473052 0.067021 -5.286470 -12.114352 6.025587 
0.457480 53.415783 -3.123298 -6.499109 4.208560 9.557626 28.948555 2.727637 1.030694 -0.108457 3.651487 -2.092301 -7.593451 5.120650 -0.558170 7.720988 4.926864 -65.928261 -2.993992 -3.962088 -0.202303 -71.075684 11.693549 -18.970243 -18.701958 -5.000000 45.000000 -21.837635 16.342720 21.547304 11.640141 12.912733 -0.686386 49.222809 -15.391049 -17.059866 22.247028 5.000000 45.000000 13.155517 -25.399790 32.095795 8.289534 3.123807 -12.709910 4.611471 -4.611595 -0.609547 -9.056581 9.019818 -1.179569 14.547755 -8.592279 -3.944330 0.185460 3.492451 0.056938 -5.226355 -12.037013 6.053635 
0.465913 53.415787 -3.113028 -6.492784 4.237207 9.577824 28.936886 2.756125 0.988784 -0.118632 3.641711 -2.102047 -7.612982 5.120650 -0.558170 7.716998 4.944061 -65.881332 -2.984262 -3.971840 -0.202806 -71.063049 11.677947 -18.941973 -18.717379 -5.000000 45.000000 -22.029915 16.368191 21.669008 11.630496 12.922484 -0.686890 49.151424 -15.433083 -17.063118 22.273691 5.000000 45.000000 13.132941 -25.464766 32.087795 8.326676 3.094041 -12.725330 4.575334 -4.606831 -0.577125 -9.057505 8.983619 -1.175334 14.589154 -8.603869 -4.036029 0.186152 3.473173 0.077378 -5.235106 -11.989083 6.073449 
0.474333 53.415787 -3.102757 -6.486439 4.265849 9.597303 28.915548 2.771777 0.951015 -0.138163 3.641711 -2.092281 -7.622748 5.120650 -0.558170 7.713028 4.961286 -65.835251 -2.984297 -3.981593 -0.203309 -71.040985 11.665500 -18.913710 -18.732792 -5.000000 45.000000 -22.234312 16.394642 21.776625 11.628420 12.934205 -0.678072 49.081291 -15.467768 -17.069969 22.292534 5.000000 45.000000 13.109713 -25.534996 32.062843 8.361185 3.071761 -12.749331 4.529102 -4.597811 -0.563359 -9.035557 8.857560 -1.258103 14.607988 -8.612979 -4.087754 0.195121 3.443022 0.058417 -5.209625 -11.941882 6.107749 
0.488979 53.415787 -3.092561 -6.513039 4.237328 9.568087 28.917229 2.844138 0.981023 -0.170790 3.651404 -2.141010 -7.563777 5.082029 -0.552330 7.717215 4.964038 -65.755440 -2.984367 -4.001098 -0.204314 -71.023758 11.715121 -18.915310 -18.749620 -5.000000 45.000000 -22.232143 16.445274 21.676317 11.698495 12.893217 -0.685376 49.080795 -15.544851 -17.094721 22.295464 5.000000 45.000000 13.117223 -25.609884 31.956833 8.430358 3.082130 -12.731906 4.488879 -4.596437 -0.550529 -9.054778 8.901043 -1.214321 14.636853 -8.622307 -4.089823 0.185464 3.463585 0.086702 -5.310291 -11.942815 6.184671 
0.503638 53.415791 -3.082364 -6.537266 4.218310 9.547888 28.908871 2.907665 1.006401 -0.213199 3.661095 -2.179972 -7.494103 5.035216 -0.535411 7.720556 4.964871 -65.686028 -2.984438 -4.020603 -0.205320 -71.007629 11.767934 -18.928034 -18.761286 -5.000000 45.000000 -22.226717 16.480545 21.571743 11.776139 12.854197 -0.683357 49.071880 -15.617437 -17.123119 22.290756 5.000000 45.000000 13.120989 -25.672132 31.859219 8.496151 3.105346 -12.712585 4.410810 -4.604109 -0.544585 -9.028772 8.951596 -1.171299 14.661354 -8.619811 -4.090149 0.185493 3.483458 0.105900 -5.415835 -11.971077 6.280482 
0.515781 53.417038 -3.073381 -6.540867 4.218913 9.499197 28.899729 2.923928 1.012262 -0.233422 3.690384 -2.179968 -7.454951 5.025560 -0.533951 7.727818 4.948425 -65.662689 -3.004076 -4.049861 -0.206829 -70.991646 11.811529 -18.941940 -18.793564 -5.000000 45.000000 -22.117569 16.537601 21.439337 11.834493 12.834682 -0.682347 49.056828 -15.670872 -17.130131 22.318998 5.000000 45.000000 13.172120 -25.680801 31.825100 8.565955 3.082147 -12.669768 4.315451 -4.600550 -0.527129 -8.996985 8.912111 -1.181261 14.671990 -8.639431 -4.074071 0.186095 3.483584 0.116259 -5.488550 -11.937427 6.319928 
0.526236 53.419109 -3.065206 -6.544306 4.229384 9.430310 28.870762 2.911641 1.007089 -0.233072 3.729465 -2.150706 -7.424983 5.046335 -0.527253 7.730088 4.916613 -65.676773 -3.033517 -4.088871 -0.208840 -70.967667 11.843059 -18.971384 -18.824236 -5.000000 45.000000 -21.935703 16.577532 21.254385 11.873317 12.815173 -0.681338 49.046066 -15.716033 -17.116617 22.373655 5.000000 45.000000 13.240505 -25.651167 31.833374 8.632499 3.075855 -12.605547 4.226384 -4.616804 -0.510816 -8.966856 8.874866 -1.157997 14.652350 -8.688310 -4.023932 0.215147 3.461998 0.099082 -5.529360 -11.928404 6.299389 
0.535886 53.420357 -3.056608 -6.537278 4.239736 9.371881 28.851183 2.913241 0.996906 -0.242236 3.758783 -2.131213 -7.395685 5.046335 -0.527253 7.746304 4.904935 -65.694229 -3.053121 -4.108377 -0.209846 -70.950722 11.874258 -18.979282 -18.853300 -5.000000 45.000000 -21.768976 16.624073 21.110548 11.912259 12.805413 -0.680832 49.022793 -15.743898 -17.089836 22.403536 5.000000 45.000000 13.321527 -25.644602 31.816305 8.689038 3.064563 -12.560452 4.139006 -4.656508 -0.494897 -8.938736 8.874628 -1.106584 14.651406 -8.707967 -4.008050 0.214902 3.442140 0.079874 -5.558604 -11.904262 6.286042 
0.542236 53.418278 -3.046310 -6.539746 4.220346 9.381616 28.852352 2.936632 1.017745 -0.271309 3.749020 -2.180042 -7.366299 5.036679 -0.525793 7.762102 4.983456 -65.719765 -3.033409 -4.059613 -0.207332 -70.953423 11.851881 -18.924324 -18.843227 -5.000000 45.000000 -21.659004 16.635233 21.087666 11.892968 12.824922 -0.681841 49.008518 -15.699137 -17.037382 22.379267 5.000000 45.000000 13.408394 -25.693882 31.756897 8.722700 3.091846 -12.558224 4.059236 -4.635274 -0.517652 -8.876196 8.833109 -1.142700 14.686223 -8.691577 -4.073894 0.205563 3.443335 0.118245 -5.636200 -11.831083 6.300720 
0.548574 53.416203 -3.036011 -6.544535 4.191441 9.380899 28.852724 2.967603 1.020618 -0.290840 3.749020 -2.219105 -7.336914 5.027024 -0.524333 7.786748 5.059989 -65.754242 -3.013735 -4.020603 -0.205320 -70.955978 11.838737 -18.866159 -18.839941 -5.000000 45.000000 -21.545742 16.654720 21.057785 11.873555 12.834676 -0.682346 48.984589 -15.657213 -16.982300 22.354971 5.000000 45.000000 13.486148 -25.737919 31.705893 8.775269 3.122880 -12.557122 3.981517 -4.625480 -0.491858 -8.860002 8.783959 -1.133868 14.706022 -8.661883 -4.137738 0.204852 3.423812 0.117972 -5.701750 -11.780162 6.287054 
0.554924 53.417454 -3.025713 -6.541343 4.210711 9.381615 28.842249 2.960650 1.016320 -0.322057 3.748976 -2.258104 -7.277997 5.086419 -0.523477 7.852030 5.085691 -65.729065 -3.043569 -3.981074 -0.213037 -70.964943 11.863252 -18.858551 -18.879444 -5.000000 45.000000 -21.466005 16.662872 21.062956 11.871731 12.865941 -0.674541 48.950695 -15.639194 -16.956713 22.331604 5.000000 45.000000 13.422878 -25.740744 31.663240 8.833419 3.093129 -12.554120 3.912107 -4.595151 -0.466516 -8.837980 8.737111 -1.157308 14.735030 -8.691355 -4.173644 0.185466 3.425098 0.126389 -5.505334 -11.707623 6.388627 
